<?xml version="1.0" standalone="no"?>
<!DOCTYPE svg PUBLIC "-//W3C//DTD SVG 20010904//EN"
 "http://www.w3.org/TR/2001/REC-SVG-20010904/DTD/svg10.dtd">
<svg version="1.0" xmlns="http://www.w3.org/2000/svg"
 width="700.000000pt" height="700.000000pt" viewBox="0 0 700.000000 700.000000"
 preserveAspectRatio="xMidYMid meet">
<metadata>
Created by potrace 1.11, written by Peter Selinger 2001-2013
</metadata>
<g transform="translate(0.000000,700.000000) scale(0.100000,-0.100000)"
fill="#000000" stroke="none">
<path d="M3395 6074 c-332 -73 -588 -329 -672 -670 -25 -102 -22 -304 6 -409
31 -119 108 -264 206 -389 92 -117 148 -210 207 -346 l37 -85 399 -3 399 -2
18 47 c36 98 130 265 196 350 211 271 267 422 256 682 -8 204 -66 361 -191
516 -120 151 -267 246 -466 302 -80 23 -306 27 -395 7z m231 -327 c19 -17 27
-33 27 -56 0 -50 -28 -71 -114 -82 -195 -24 -334 -166 -358 -366 -9 -77 -30
-103 -81 -103 -55 0 -73 25 -71 102 5 238 194 461 434 513 95 20 132 19 163
-8z"/>
<path d="M3180 3895 c0 -129 1 -133 82 -253 60 -89 94 -112 166 -112 l52 0 0
-1015 0 -1014 -69 32 -68 32 -5 175 c-5 143 -10 192 -31 270 -102 386 -379
692 -745 824 -147 52 -203 61 -402 61 -212 -1 -203 1 -528 -106 -223 -74 -242
-85 -242 -140 0 -46 29 -66 155 -110 313 -109 607 -260 882 -456 49 -34 247
-191 441 -348 332 -268 362 -290 483 -350 l129 -65 0 -90 0 -90 80 0 80 0 2
547 3 548 137 105 c75 58 184 149 243 202 456 418 1002 672 1640 763 200 29
219 37 219 99 0 62 23 51 -426 209 -371 132 -371 132 -568 132 -141 0 -177 -3
-249 -23 -175 -48 -328 -139 -453 -270 -144 -152 -182 -230 -304 -621 l-88
-283 -78 -60 -78 -59 0 551 0 550 71 0 c97 0 122 17 201 138 l63 97 3 123 4
122 -401 0 -401 0 0 -115z"/>
</g>
</svg>
