<svg xmlns="http://www.w3.org/2000/svg" viewBox="0 0 100 100"><defs><style>.a{fill:#fff;}.b{fill:#3f783a;}.c{fill:#5a9d43;}.d{fill:#fbc311;}</style></defs><title>switch</title><circle class="a" cx="50.057" cy="50" r="50"/><path class="b" d="M83.335,50.344,74.441,47.2a13.871,13.871,0,0,0-17.712,8.6c-.047.136-.092.273-.135.41l-2.327,7.434-2.292,1.733V49.857c0-2.07-2.141-2.791-2.138,0V78.735L47.7,77.658V75.44A16.8,16.8,0,0,0,30.964,58.563a16.621,16.621,0,0,0-5.292.866l-5.042,1.7a1.079,1.079,0,0,0,0,2.05l1.145.385a48.736,48.736,0,0,1,15.124,8.3l9.062,7.311a.92.92,0,0,0,.2.108l-.007.014,3.686,1.861v2.568h2.138V68.078l3.849-2.912-.012-.015a1.221,1.221,0,0,0,.127-.085A43.068,43.068,0,0,1,81.01,52.7l2.1-.265a1.079,1.079,0,0,0,.22-2.088Z"/><path class="c" d="M64.506,54.9A15.606,15.606,0,0,0,59.25,61.2l-.511,1.114a43.049,43.049,0,0,1,22.848-9.8l2.041-.223-10.064-.158A15.412,15.412,0,0,0,64.506,54.9Z"/><path class="c" d="M47.44,79.812l-.022-.119A23.174,23.174,0,0,0,22.8,60.6l-.5.041-1.419.478a1.079,1.079,0,0,0,0,2.049l1.145.385a48.739,48.739,0,0,1,15.124,8.3l9.062,7.311a.966.966,0,0,0,.2.108l-.007.014Z"/><path class="d" d="M45.449,45.48a2.309,2.309,0,0,0,.38,1.265l1.212,1.838a2.268,2.268,0,0,0,1.889,1.022h4.378A2.268,2.268,0,0,0,55.2,48.583l1.212-1.837a2.31,2.31,0,0,0,.38-1.266l0-2.743H45.445ZM38.637,25.57a12.586,12.586,0,0,0,3.089,8.283,20.586,20.586,0,0,1,3.7,6.543l.007.056H56.8l.008-.056a20.611,20.611,0,0,1,3.7-6.543,12.662,12.662,0,0,0-1.182-17.76,12.4,12.4,0,0,0-17.607,1.192,12.648,12.648,0,0,0-3.084,8.285Zm12.481-5.722a5.7,5.7,0,0,0-5.673,5.722,1.135,1.135,0,0,1-2.269,0,7.985,7.985,0,0,1,7.942-8.011,1.145,1.145,0,0,1,.044,2.289Z"/></svg>