<svg width="16" height="16" viewBox="0 0 16 16" fill="none" xmlns="http://www.w3.org/2000/svg">
<path fill-rule="evenodd" clip-rule="evenodd" d="M15.2929 2.31854C15.6834 1.92801 15.6834 1.29485 15.2929 0.904322L15.0957 0.707106C14.7052 0.316582 14.072 0.316582 13.6815 0.707107L8 6.38857L2.31854 0.707108C1.92801 0.316584 1.29485 0.316583 0.904322 0.707107L0.707106 0.904322C0.316582 1.29485 0.316582 1.92801 0.707107 2.31854L6.38857 8L0.805715 13.5829C0.360732 14.0278 0.36073 14.7493 0.805714 15.1943V15.1943C1.2507 15.6393 1.97216 15.6393 2.41714 15.1943L8 9.61143L13.6815 15.2929C14.072 15.6834 14.7052 15.6834 15.0957 15.2929L15.2929 15.0957C15.6834 14.7052 15.6834 14.072 15.2929 13.6815L9.61143 8L15.2929 2.31854Z" fill="#B90857"/>
</svg>
