<?xml version="1.0" encoding="iso-8859-1"?>
<!-- Generator: Adobe Illustrator 19.0.0, SVG Export Plug-In . SVG Version: 6.00 Build 0)  -->
<svg version="1.1" id="Capa_1" xmlns="http://www.w3.org/2000/svg" xmlns:xlink="http://www.w3.org/1999/xlink" x="0px" y="0px"
	 viewBox="0 0 512 512" style="fill:#B22222" xml:space="preserve">
<g>
	<g>
		<g>
			<polygon points="164.571,214.577 115.291,244.145 164.571,244.145 			"/>
			<rect x="137.143" y="372.145" width="45.714" height="36.571"/>
			<polygon points="256,244.145 256,214.577 206.72,244.145 			"/>
			<rect x="36.571" y="372.145" width="45.714" height="36.571"/>
			<polygon points="73.143,214.577 23.863,244.145 73.143,244.145 			"/>
			<rect x="420.571" y="88.717" width="36.571" height="18.286"/>
			<polygon points="347.429,244.145 347.429,214.577 298.149,244.145 			"/>
			<path d="M234.971,88.717c5.049,0,9.143,4.093,9.143,9.143c0,5.049-4.093,9.143-9.143,9.143c-1.344,0-2.743-0.155-4.16-0.229
				c4.014,9.509,15.406,23.433,46.949,26.825c-2.046-5.605-3.218-11.492-3.474-17.454c0-5.049,4.093-9.143,9.143-9.143
				s9.143,4.093,9.143,9.143c0.481,7.777,3.196,15.249,7.817,21.522c9.508,10.775,23.587,16.366,37.897,15.049h58.926l5.074-37.184
				V79.574c0-5.049,4.093-9.143,9.143-9.143h27.429V43.003c-0.648-11.549-6.103-22.298-15.04-29.641
				c-16.101-13.614-38.693-11.237-50.715-8.603c-4.177,0.934-8.278,2.178-12.27,3.721c8.444,9.486,13.393,21.574,14.025,34.258
				c0.071,2.425-0.824,4.779-2.489,6.544c-1.665,1.765-3.963,2.795-6.388,2.864h-0.265c-4.948,0.002-8.999-3.932-9.143-8.878
				c-0.904-11.889-7.066-22.754-16.805-29.632C321.216-0.353,295.314,2.097,281.6,4.795c-1.911,0.384-3.749,0.914-5.632,1.435
				c0.914,0.448,1.737,0.786,2.642,1.271c4.356,2.419,5.973,7.881,3.635,12.282c-2.337,4.401-7.768,6.119-12.211,3.865
				c-6.026-3.275-12.332-6.004-18.843-8.155c-13.504-4.885-28.464-3.664-40.997,3.346c-15.039,10.27-21.697,29.096-16.457,46.537
				C199.067,82.609,219.282,88.717,234.971,88.717z"/>
			<polygon points="394.478,308.145 483.237,308.145 458.304,125.288 419.41,125.288 			"/>
			<polygon points="411.429,491.003 356.571,491.003 320,491.003 228.571,491.003 0,491.003 0,509.288 512,509.288 512,491.003 
				466.286,491.003 			"/>
			<rect x="420.571" y="427.003" width="36.571" height="45.714"/>
			<path d="M283.429,454.431h-45.714v18.286h73.143v-128h-73.143v18.286h45.714c5.049,0,9.143,4.093,9.143,9.143
				c0,5.049-4.093,9.143-9.143,9.143h-45.714v18.286h45.714c5.049,0,9.143,4.093,9.143,9.143s-4.093,9.143-9.143,9.143h-45.714
				v18.286h45.714c5.049,0,9.143,4.093,9.143,9.143C292.571,450.338,288.478,454.431,283.429,454.431z"/>
			<path d="M365.714,326.431v27.429h36.571c5.049,0,9.143,4.093,9.143,9.143s-4.093,9.143-9.143,9.143h-36.571v100.571h36.571
				v-45.714c0-10.099,8.187-18.286,18.286-18.286h36.571c10.099,0,18.286,8.187,18.286,18.286v45.714H512V326.431H365.714z
				 M484.571,372.145h-45.714c-5.049,0-9.143-4.093-9.143-9.143s4.093-9.143,9.143-9.143h45.714c5.049,0,9.143,4.093,9.143,9.143
				S489.621,372.145,484.571,372.145z"/>
			<path d="M219.429,344.717c0-10.099,8.187-18.286,18.286-18.286h73.143c10.099,0,18.286,8.187,18.286,18.286v128h18.286V262.431H0
				v27.429h64c5.049,0,9.143,4.093,9.143,9.143s-4.093,9.143-9.143,9.143H0v164.571h219.429V344.717z M100.571,408.717
				c0,10.099-8.187,18.286-18.286,18.286H36.571c-10.099,0-18.286-8.187-18.286-18.286v-36.571c0-10.099,8.187-18.286,18.286-18.286
				h45.714c10.099,0,18.286,8.187,18.286,18.286V408.717z M201.143,408.717c0,10.099-8.187,18.286-18.286,18.286h-45.714
				c-10.099,0-18.286-8.187-18.286-18.286v-36.571c0-10.099,8.187-18.286,18.286-18.286h45.714c10.099,0,18.286,8.187,18.286,18.286
				V408.717z M201.143,308.145H100.571c-5.049,0-9.143-4.093-9.143-9.143s4.093-9.143,9.143-9.143h100.571
				c5.049,0,9.143,4.093,9.143,9.143S206.192,308.145,201.143,308.145z"/>
		</g>
	</g>
</g>
<g>
</g>
<g>
</g>
<g>
</g>
<g>
</g>
<g>
</g>
<g>
</g>
<g>
</g>
<g>
</g>
<g>
</g>
<g>
</g>
<g>
</g>
<g>
</g>
<g>
</g>
<g>
</g>
<g>
</g>
</svg>
