<svg width="18" height="18" viewBox="0 0 18 18" fill="none" xmlns="http://www.w3.org/2000/svg">
<path d="M7.89371 13V13.6798C7.89371 14.3977 7.69474 15.1016 7.31889 15.7133L7.19295 15.9182C7.06883 16.1202 6.90107 16.4098 6.95918 16.6397C7.05112 17.0034 7.49131 17.0017 7.87522 17.0002C7.89959 17.0001 7.92372 17 7.94752 17H8.89221V1C6.76206 1 6.00764 2.81481 5.89669 3.72222C4.56535 3.14444 3.41892 3.92593 3.01212 4.38889C2.01489 5.66505 2.5485 6.77496 2.78932 7.27588L2.79023 7.27778C1.54765 7.72222 1.01512 8.98148 0.904171 9.55556C0.858885 10.2207 0.945047 10.7461 1.11459 11.1673C1.84693 12.987 4.35855 13 6.32003 13H7.89371Z" fill="#86BE4E"/>
<path d="M11.4644 13H9.89072V13.6798C9.89072 14.3977 10.0897 15.1016 10.4655 15.7133L10.5915 15.9182C10.7156 16.1202 10.8834 16.4098 10.8252 16.6397C10.7333 17.0034 10.2931 17.0017 9.9092 17.0002C9.88484 17.0001 9.8607 17 9.8369 17H8.89221V1C11.0224 1 11.7768 2.81481 11.8877 3.72222C13.2191 3.14444 14.3655 3.92593 14.7723 4.38889C15.7695 5.66505 15.2359 6.77496 14.9951 7.27588L14.9942 7.27778C16.2368 7.72222 16.7693 8.98148 16.8803 9.55556C16.9255 10.2207 16.8394 10.7461 16.6698 11.1673C15.9375 12.987 13.4259 13 11.4644 13Z" fill="#86BE4E"/>
<path d="M8.89221 17H7.94752C7.92372 17 7.89959 17.0001 7.87522 17.0002C7.49131 17.0017 7.05112 17.0034 6.95918 16.6397C6.90107 16.4098 7.06883 16.1202 7.19295 15.9182L7.31889 15.7133C7.69474 15.1016 7.89371 14.3977 7.89371 13.6798V13H6.32003C4.35855 13 1.84693 12.987 1.11459 11.1673C0.945047 10.7461 0.858885 10.2207 0.904171 9.55556C1.01512 8.98148 1.54765 7.72222 2.79023 7.27778L2.78932 7.27588C2.5485 6.77496 2.01489 5.66505 3.01212 4.38889C3.41892 3.92593 4.56535 3.14444 5.89669 3.72222C6.00764 2.81481 6.76206 1 8.89221 1M8.89221 17V1M8.89221 17H9.8369C9.8607 17 9.88484 17.0001 9.9092 17.0002C10.2931 17.0017 10.7333 17.0034 10.8252 16.6397C10.8834 16.4098 10.7156 16.1202 10.5915 15.9182L10.4655 15.7133C10.0897 15.1016 9.89072 14.3977 9.89072 13.6798V13H11.4644C13.4259 13 15.9375 12.987 16.6698 11.1673C16.8394 10.7461 16.9255 10.2207 16.8803 9.55556C16.7693 8.98148 16.2368 7.72222 14.9942 7.27778L14.9951 7.27588C15.2359 6.77496 15.7695 5.66505 14.7723 4.38889C14.3655 3.92593 13.2191 3.14444 11.8877 3.72222C11.7768 2.81481 11.0224 1 8.89221 1" stroke="#86BE4E"/>
</svg>
